<?xml version="1.0" encoding="UTF-8"?>
<svg width="135px" height="34px" viewBox="0 0 135 34" version="1.1" xmlns="http://www.w3.org/2000/svg" xmlns:xlink="http://www.w3.org/1999/xlink">
    <title>logo</title>
    <g id="Clients" stroke="none" stroke-width="1" fill="none" fill-rule="evenodd">
        <g id="Test-2" transform="translate(-43.000000, -41.000000)" fill="#034EA1">
            <g id="logo" transform="translate(43.000000, 41.930233)">
                <g id="Group-4" transform="translate(0.000000, 0.069767)">
                    <g id="Group-2" transform="translate(0.000000, 9.300000)">
                        <path d="M25.4542357,0.257144987 C23.0996514,0.257144987 20.9245226,1.01531008 19.1647356,2.29713988 C20.7453346,3.861268 21.8326315,5.78190008 22.350271,7.87537056 C23.1247912,7.05448718 24.2285361,6.54059332 25.4542357,6.54059332 C27.7971862,6.54059332 29.6965794,8.41606823 29.6965794,10.7295149 L29.6965794,18.0601606 C29.6965794,19.7952786 31.1211243,21.2018847 32.8783705,21.2018847 C34.6356168,21.2018847 36.0601617,19.7952786 36.0601617,18.0601606 L36.0601617,10.7295149 C36.0601617,4.94583227 31.3116787,0.257144987 25.4542357,0.257144987" id="Fill-1"></path>
                        <path d="M21.2118653,10.7295281 C21.2118653,4.94584547 16.4633823,0.257158191 10.6059394,0.257158191 C4.74849637,0.257158191 1.33722416e-05,4.94584547 1.33722416e-05,10.7295281 L1.33722416e-05,18.0601738 C1.33722416e-05,19.7952918 1.42455827,21.2018979 3.18180454,21.2018979 C4.93905081,21.2018979 6.36359571,19.7952918 6.36359571,18.0601738 L6.36359571,10.7295281 C6.36359571,8.41608144 8.2629889,6.54060653 10.6059394,6.54060653 C12.9488898,6.54060653 14.848283,8.41608144 14.848283,10.7295281 L14.848283,18.0601738 C14.848283,19.7952918 16.2728279,21.2018979 18.0300742,21.2018979 C19.7873204,21.2018979 21.2118653,19.7952918 21.2118653,18.0601738 L21.2118653,10.7295281 Z" id="Fill-3"></path>
                    </g>
                    <g id="Group-3" transform="translate(38.674419, 0.000000)">
                        <path d="M10.7497608,24.218476 C8.40681033,24.218476 6.50741714,22.3430011 6.50741714,20.0295545 C6.50741714,17.7159758 8.40681033,15.8406329 10.7497608,15.8406329 C13.0927112,15.8406329 14.9921044,17.7159758 14.9921044,20.0295545 C14.9921044,22.3430011 13.0927112,24.218476 10.7497608,24.218476 M10.7497608,9.5571846 C4.8923178,9.5571846 0.143834802,14.2457398 0.143834802,20.0295545 C0.143834802,25.8132371 4.8923178,30.5019244 10.7497608,30.5019244 C16.6072038,30.5019244 21.3556868,25.8132371 21.3556868,20.0295545 C21.3556868,14.2457398 16.6072038,9.5571846 10.7497608,9.5571846" id="Fill-5"></path>
                        <path d="M34.7222051,24.0864639 C32.3792546,24.0864639 30.4798614,22.210989 30.4798614,19.8975424 C30.4798614,17.5839637 32.3792546,15.7086208 34.7222051,15.7086208 C37.0651555,15.7086208 38.9645487,17.5839637 38.9645487,19.8975424 C38.9645487,22.210989 37.0651555,24.0864639 34.7222051,24.0864639 M42.1463399,0 C40.3890936,0 38.9645487,1.40660618 38.9645487,3.14172417 L38.9645487,10.2974189 C37.6653017,9.73678337 36.2307276,9.4251725 34.7222051,9.4251725 C28.8647621,9.4251725 24.1162791,14.1137277 24.1162791,19.8975424 C24.1162791,25.681225 28.8647621,30.3699123 34.7222051,30.3699123 C36.5007132,30.3699123 38.1765225,29.936958 39.6486726,29.1731153 C40.2313011,29.9017037 41.1331251,30.3699123 42.1463399,30.3699123 C43.9035861,30.3699123 45.328131,28.9633061 45.328131,27.2281881 L45.328131,19.8975424 L45.328131,3.14172417 C45.328131,1.40660618 43.9035861,0 42.1463399,0" id="Fill-7"></path>
                        <path d="M75.7641151,6.41544723 C77.5213614,6.41544723 78.9459063,5.00884104 78.9459063,3.27372306 C78.9459063,1.53860508 77.5213614,0.131998893 75.7641151,0.131998893 C74.0068689,0.131998893 72.582324,1.53860508 72.582324,3.27372306 C72.582324,5.00884104 74.0068689,6.41544723 75.7641151,6.41544723" id="Fill-10"></path>
                        <path d="M75.7641151,9.55715819 C74.0068689,9.55715819 72.582324,10.9637644 72.582324,12.6988824 L72.582324,27.3601738 C72.582324,29.0952918 74.0068689,30.5018979 75.7641151,30.5018979 C77.5213614,30.5018979 78.9459063,29.0952918 78.9459063,27.3601738 L78.9459063,12.6988824 C78.9459063,10.9637644 77.5213614,9.55715819 75.7641151,9.55715819" id="Fill-13"></path>
                        <path d="M66.4309056,9.55715819 C64.6736594,9.55715819 63.2491145,10.9637644 63.2491145,12.6988824 L63.2491145,20.0295281 C63.2491145,22.3429747 61.3497213,24.2184496 59.0067708,24.2184496 C56.6638204,24.2184496 54.7644272,22.3429747 54.7644272,20.0295281 L54.7644272,12.6988824 C54.7644272,10.9637644 53.3398823,9.55715819 51.582636,9.55715819 C49.8253897,9.55715819 48.4008448,10.9637644 48.4008448,12.6988824 L48.4008448,20.0295281 C48.4008448,25.8132107 53.1491941,30.5018979 59.0067708,30.5018979 C64.8642138,30.5018979 69.6126968,25.8132107 69.6126968,20.0295281 L69.6126968,12.6988824 C69.6126968,10.9637644 68.1881519,9.55715819 66.4309056,9.55715819" id="Fill-15"></path>
                        <path d="M92.6828491,24.0864639 C90.3398986,24.0864639 88.4405054,22.210989 88.4405054,19.8975424 L88.4405054,15.7086208 L92.6828491,15.7086208 C94.4400953,15.7086208 95.8646402,14.3020147 95.8646402,12.5668967 C95.8646402,10.8317787 94.4400953,9.4251725 92.6828491,9.4251725 L88.4405054,9.4251725 L88.4405054,3.14172417 C88.4405054,1.40660618 87.0159605,0 85.2587142,0 C83.501468,0 82.0769231,1.40660618 82.0769231,3.14172417 L82.0769231,19.8975424 C82.0769231,25.681225 86.8254061,30.3699123 92.6828491,30.3699123 C94.4400953,30.3699123 95.8646402,28.9633061 95.8646402,27.2281881 C95.8646402,25.4930701 94.4400953,24.0864639 92.6828491,24.0864639" id="Fill-17"></path>
                    </g>
                </g>
            </g>
        </g>
    </g>
</svg>