<?xml version="1.0" encoding="UTF-8"?>
<svg width="14px" height="14px" viewBox="0 0 14 14" version="1.1" xmlns="http://www.w3.org/2000/svg" xmlns:xlink="http://www.w3.org/1999/xlink">
    <title>Shape@3x</title>
    <g id="Clients" stroke="none" stroke-width="1" fill="none" fill-rule="evenodd">
        <g id="Test-2" transform="translate(-1351.000000, -45.000000)" fill="#034EA1" fill-rule="nonzero">
            <g id="2" transform="translate(310.000000, 34.000000)">
                <g id="search" transform="translate(680.000000, 0.980259)">
                    <g id="Sort" transform="translate(361.000000, 10.000000)">
                        <path d="M13.688957,12.1659808 L10.8031085,9.28025023 C11.4985718,8.27630773 11.8464803,7.15711282 11.8464803,5.92325487 C11.8464803,5.12117353 11.6907672,4.35407164 11.3793411,3.622126 C11.0681213,2.89006249 10.6473955,2.25907691 10.1173405,1.72902191 C9.58728548,1.19896691 8.95638831,0.778241093 8.22447214,0.466991806 C7.49232022,0.155654112 6.72527727,0 5.92319593,0 C5.12117353,0 4.35407164,0.155654112 3.622126,0.466991806 C2.89006249,0.778241093 2.25907691,1.19896691 1.72902191,1.72902191 C1.19890797,2.25907691 0.778241093,2.89018037 0.466962337,3.622126 C0.155654112,4.35416004 0,5.12117353 0,5.92325487 C0,6.72527727 0.155654112,7.49211394 0.466962337,8.22426586 C0.778211624,8.95621149 1.19890797,9.58710867 1.72902191,10.1171637 C2.25907691,10.6473955 2.89018037,11.0679445 3.622126,11.3793706 C4.35416004,11.6906493 5.12117353,11.846274 5.92319593,11.846274 C7.1573191,11.846274 8.2763372,11.4983361 9.28033864,10.8029317 L12.1661871,13.6802932 C12.3681072,13.8933819 12.6201832,14 12.9233285,14 C13.2149811,14 13.4675286,13.8934114 13.6804995,13.6802932 C13.8935588,13.4672339 14.0001769,13.2148043 14.0001769,12.9231517 C14.0001769,12.6260475 13.8965056,12.3735295 13.688957,12.1659808 Z M8.58611305,8.5858773 C7.84853887,9.32356934 6.9609686,9.69240063 5.92319593,9.69240063 C4.88560008,9.69240063 3.9980298,9.32348094 3.26039669,8.5858773 C2.52276358,7.84830312 2.15396176,6.96085072 2.15396176,5.92307806 C2.15396176,4.8854822 2.52285199,3.99776458 3.26039669,3.26027882 C3.99788246,2.52261624 4.88560008,2.15384389 5.92319593,2.15384389 C6.96085072,2.15384389 7.848421,2.52276358 8.58611305,3.26027882 C9.32380509,3.99776458 9.69260691,4.8854822 9.69260691,5.92307806 C9.69260691,6.96085072 9.32368722,7.84830312 8.58611305,8.5858773 Z" id="Shape"></path>
                    </g>
                </g>
            </g>
        </g>
    </g>
</svg>